<svg width="500" height="382" viewBox="0 0 500 382" fill="none" xmlns="http://www.w3.org/2000/svg">
<g clip-path="url(#clip0)">
<path opacity="0.4" d="M412.497 55.8131C412.497 55.8131 373.676 3.87204 309.3 0.216087C244.924 -3.43987 209.086 40.4436 182.797 73.3593C156.508 106.275 76.6781 87.2735 28.393 137.747C-19.892 188.221 3.52291 217.481 24.7852 246.753C46.0474 276.024 66.4799 280.426 66.4799 304.55C66.4799 328.675 78.1693 360.869 124.23 368.181C170.29 375.493 217.865 330.9 250.781 347.736C283.697 364.573 338.933 377.73 372.762 368.181C406.592 358.632 396.358 323.552 432.893 311.85C469.429 300.149 504.581 263.565 499.458 224.059C494.335 184.553 465.075 177.241 452.64 139.203C440.205 101.164 422.695 71.9041 412.497 55.8131Z" fill="#9D4BFF"/>
<path d="M306.186 380.243C389.21 380.243 456.513 378.526 456.513 376.407C456.513 374.288 389.21 372.571 306.186 372.571C223.163 372.571 155.859 374.288 155.859 376.407C155.859 378.526 223.163 380.243 306.186 380.243Z" fill="black"/>
<path d="M337.587 19.7469H196.339C191.942 19.7469 188.378 23.3114 188.378 27.7083V82.9204C188.378 87.3173 191.942 90.8817 196.339 90.8817H337.587C341.984 90.8817 345.548 87.3173 345.548 82.9204V27.7083C345.548 23.3114 341.984 19.7469 337.587 19.7469Z" fill="#9D4BFF"/>
<path opacity="0.1" d="M337.587 19.7469H196.339C191.942 19.7469 188.378 23.3114 188.378 27.7083V82.9204C188.378 87.3173 191.942 90.8817 196.339 90.8817H337.587C341.984 90.8817 345.548 87.3173 345.548 82.9204V27.7083C345.548 23.3114 341.984 19.7469 337.587 19.7469Z" fill="black"/>
<path d="M188.378 78.3745V104.062L202.701 87.5625" fill="#9D4BFF"/>
<path opacity="0.1" d="M188.378 78.3745V104.062L202.701 87.5625" fill="black"/>
<path d="M309.313 58.7719H207.86C207.488 58.7719 207.119 58.6985 206.774 58.5558C206.43 58.4132 206.117 58.2041 205.853 57.9406C205.59 57.677 205.381 57.3642 205.238 57.0198C205.096 56.6755 205.022 56.3064 205.022 55.9337V55.9337C205.022 55.561 205.096 55.1919 205.238 54.8476C205.381 54.5032 205.59 54.1904 205.853 53.9268C206.117 53.6633 206.43 53.4542 206.774 53.3116C207.119 53.1689 207.488 53.0955 207.86 53.0955H309.313C310.066 53.0955 310.788 53.3945 311.32 53.9268C311.852 54.4591 312.151 55.181 312.151 55.9337V55.9337C312.151 56.6864 311.852 57.4083 311.32 57.9406C310.788 58.4728 310.066 58.7719 309.313 58.7719V58.7719Z" fill="white"/>
<path d="M309.313 71.8083H207.86C207.488 71.8083 207.119 71.7348 206.774 71.5922C206.43 71.4496 206.117 71.2405 205.853 70.977C205.59 70.7134 205.381 70.4005 205.238 70.0562C205.096 69.7119 205.022 69.3428 205.022 68.9701V68.9701C205.025 68.2194 205.326 67.5006 205.858 66.9709C206.39 66.4413 207.11 66.1439 207.86 66.1439H309.313C310.066 66.1439 310.788 66.4429 311.32 66.9752C311.852 67.5075 312.151 68.2294 312.151 68.9821V68.9821C312.148 69.7327 311.848 70.4516 311.316 70.9812C310.784 71.5109 310.064 71.8083 309.313 71.8083V71.8083Z" fill="white"/>
<path d="M213.525 45.7355C219.157 45.7355 223.723 41.1696 223.723 35.5373C223.723 29.905 219.157 25.3391 213.525 25.3391C207.892 25.3391 203.327 29.905 203.327 35.5373C203.327 41.1696 207.892 45.7355 213.525 45.7355Z" fill="white"/>
<path d="M337.587 116.016H196.339C191.942 116.016 188.378 119.581 188.378 123.978V179.19C188.378 183.587 191.942 187.151 196.339 187.151H337.587C341.984 187.151 345.548 183.587 345.548 179.19V123.978C345.548 119.581 341.984 116.016 337.587 116.016Z" fill="#9D4BFF"/>
<path opacity="0.1" d="M337.587 116.016H196.339C191.942 116.016 188.378 119.581 188.378 123.978V179.19C188.378 183.587 191.942 187.151 196.339 187.151H337.587C341.984 187.151 345.548 183.587 345.548 179.19V123.978C345.548 119.581 341.984 116.016 337.587 116.016Z" fill="black"/>
<path d="M188.378 174.632V200.32L202.701 183.82" fill="#9D4BFF"/>
<path opacity="0.1" d="M188.378 174.632V200.32L202.701 183.82" fill="black"/>
<path d="M309.313 155.029H207.86C207.488 155.029 207.119 154.956 206.774 154.813C206.43 154.671 206.117 154.462 205.853 154.198C205.59 153.934 205.381 153.622 205.238 153.277C205.096 152.933 205.022 152.564 205.022 152.191V152.191C205.022 151.818 205.096 151.449 205.238 151.105C205.381 150.761 205.59 150.448 205.853 150.184C206.117 149.921 206.43 149.712 206.774 149.569C207.119 149.426 207.488 149.353 207.86 149.353H309.313C310.066 149.353 310.788 149.652 311.32 150.184C311.852 150.717 312.151 151.438 312.151 152.191V152.191C312.151 152.944 311.852 153.666 311.32 154.198C310.788 154.73 310.066 155.029 309.313 155.029V155.029Z" fill="white"/>
<path d="M309.313 168.066H207.86C207.488 168.066 207.119 167.992 206.774 167.85C206.43 167.707 206.117 167.498 205.853 167.234C205.59 166.971 205.381 166.658 205.238 166.314C205.096 165.969 205.022 165.6 205.022 165.228V165.228C205.022 164.855 205.096 164.486 205.238 164.141C205.381 163.797 205.59 163.484 205.853 163.221C206.117 162.957 206.43 162.748 206.774 162.605C207.119 162.463 207.488 162.389 207.86 162.389H309.313C310.066 162.389 310.788 162.688 311.32 163.221C311.852 163.753 312.151 164.475 312.151 165.228V165.228C312.151 165.98 311.852 166.702 311.32 167.234C310.788 167.767 310.066 168.066 309.313 168.066V168.066Z" fill="white"/>
<path d="M213.525 141.993C219.157 141.993 223.723 137.427 223.723 131.795C223.723 126.162 219.157 121.597 213.525 121.597C207.892 121.597 203.326 126.162 203.326 131.795C203.326 137.427 207.892 141.993 213.525 141.993Z" fill="white"/>
<path d="M79.2284 256.963C79.1202 256.963 78.6392 249.423 78.6632 248.942C78.9519 243.374 82.7762 232.767 88.8133 231.155C89.823 230.916 90.8717 230.891 91.8914 231.084C92.911 231.276 93.8788 231.681 94.7317 232.272C95.5847 232.863 96.3038 233.627 96.8422 234.514C97.3806 235.401 97.7264 236.391 97.857 237.421C98.5545 241.774 95.7283 246.416 92.8421 249.447C89.4507 252.958 79.2284 256.963 79.2284 256.963Z" fill="black"/>
<path d="M71.3393 227.92C71.2311 227.92 71.8925 220.38 72.0008 219.911C73.1312 214.439 78.5069 204.541 84.7244 203.868C85.7594 203.783 86.8006 203.917 87.7803 204.261C88.76 204.606 89.6562 205.152 90.4106 205.866C91.1651 206.579 91.7607 207.444 92.159 208.403C92.5572 209.362 92.7489 210.394 92.7218 211.432C92.7218 215.846 89.2463 219.995 85.9391 222.532C82.0546 225.515 71.3393 227.908 71.3393 227.92Z" fill="black"/>
<path d="M69.343 193.621C69.2348 193.621 69.9083 186.081 70.0045 185.612C71.1229 180.14 76.5106 170.242 82.7282 169.569C83.7631 169.484 84.8043 169.618 85.784 169.963C86.7637 170.307 87.6599 170.854 88.4143 171.567C89.1688 172.281 89.7645 173.145 90.1627 174.104C90.5609 175.063 90.7527 176.095 90.7256 177.133C90.7256 181.547 87.25 185.696 83.9428 188.234C80.0584 191.216 69.343 193.621 69.343 193.621Z" fill="black"/>
<path d="M65.8915 161.379C65.7833 161.379 66.4567 153.839 66.5529 153.37C67.6834 147.898 73.0591 138 79.2766 137.327C80.3116 137.242 81.3528 137.376 82.3325 137.72C83.3122 138.065 84.2084 138.611 84.9628 139.325C85.7172 140.039 86.3129 140.903 86.7111 141.862C87.1093 142.821 87.3011 143.853 87.274 144.891C87.274 149.305 83.7985 153.454 80.5033 155.991C76.6068 158.974 65.8915 161.379 65.8915 161.379Z" fill="black"/>
<path d="M55.6091 135.463C55.5129 135.463 54.1539 128.043 54.1299 127.562C53.7691 121.993 56.3547 111.014 62.1634 108.729C63.1388 108.375 64.1778 108.23 65.2129 108.303C66.248 108.377 67.256 108.668 68.1713 109.157C69.0867 109.646 69.8889 110.322 70.5259 111.141C71.1628 111.96 71.6203 112.904 71.8685 113.912C73.0711 118.157 70.7861 123.088 68.2606 126.407C65.3142 130.316 55.6211 135.463 55.6091 135.463Z" fill="black"/>
<path d="M76.0776 257.047C76.1859 257.047 72.9027 250.18 72.6502 249.832C69.6797 245.105 61.1532 237.733 55.104 239.273C54.1063 239.559 53.18 240.052 52.3854 240.72C51.5908 241.388 50.9456 242.215 50.4919 243.149C50.0381 244.082 49.786 245.101 49.7518 246.138C49.7176 247.176 49.9022 248.209 50.2935 249.17C51.8088 253.319 56.5471 255.977 60.5398 257.192C65.194 258.563 76.0656 257.047 76.0776 257.047Z" fill="black"/>
<path d="M69.7518 224.024C69.8601 224.024 65.5787 217.722 65.2661 217.361C61.6582 213.14 52.0373 207.139 46.3249 209.58C45.3795 210.01 44.5351 210.633 43.8468 211.411C43.1584 212.188 42.6414 213.101 42.3294 214.092C42.0174 215.082 41.9175 216.127 42.0361 217.159C42.1546 218.19 42.4891 219.185 43.0177 220.079C45.1463 223.939 50.2334 225.852 54.3583 226.453C59.2049 227.174 69.7518 224.024 69.7518 224.024Z" fill="black"/>
<path d="M67.9119 191.685C68.0202 191.685 63.7388 185.383 63.4262 185.023C59.8183 180.801 50.1974 174.8 44.4849 177.242C43.541 177.674 42.6987 178.301 42.0129 179.081C41.3271 179.86 40.8132 180.776 40.5046 181.767C40.196 182.759 40.0997 183.804 40.2219 184.836C40.3441 185.867 40.6821 186.861 41.2138 187.753C43.3425 191.613 48.4295 193.525 52.5545 194.126C57.389 194.824 67.8999 191.685 67.9119 191.685Z" fill="black"/>
<path d="M64.7971 161.993C64.9053 161.993 60.624 155.691 60.3113 155.33C56.7034 151.109 47.0825 145.108 41.3701 147.549C40.4261 147.982 39.5838 148.608 38.898 149.388C38.2122 150.168 37.6983 151.083 37.3898 152.075C37.0812 153.066 36.9849 154.112 37.107 155.143C37.2292 156.174 37.5672 157.168 38.099 158.06C40.2276 161.92 45.3147 163.833 49.4396 164.434C54.2742 165.143 64.785 161.993 64.7971 161.993Z" fill="black"/>
<path d="M55.6693 136.437C55.7775 136.437 50.8588 130.628 50.474 130.304C46.373 126.515 36.235 121.597 30.7871 124.651C29.8942 125.185 29.1239 125.902 28.5266 126.753C27.9294 127.605 27.5186 128.574 27.3211 129.595C27.1236 130.617 27.1439 131.668 27.3805 132.682C27.6172 133.695 28.065 134.647 28.6946 135.475C31.2321 139.083 36.4996 140.418 40.7207 140.562C45.5553 140.706 55.6572 136.449 55.6693 136.437Z" fill="black"/>
<path d="M42.5487 115.319C42.6569 115.319 40.9252 107.935 40.7688 107.478C38.8687 102.222 32.134 93.1908 25.8925 93.3953C24.856 93.4582 23.8443 93.7387 22.9234 94.2186C22.0025 94.6984 21.193 95.3667 20.5475 96.1801C19.9019 96.9935 19.435 97.9337 19.1769 98.9396C18.9188 99.9454 18.8754 100.994 19.0496 102.018C19.6388 106.396 23.7037 110.003 27.3356 112.048C31.5929 114.453 42.5367 115.319 42.5487 115.319Z" fill="black"/>
<path d="M89.7394 295.928C89.7394 295.928 88.4526 292.982 86.4201 287.822C84.3877 282.663 81.6097 275.219 78.6633 266.175C77.184 261.653 75.6687 256.723 74.2136 251.467C73.4559 248.821 72.7825 246.164 72.0489 243.313L71.1228 239.092C70.7861 237.697 70.6057 236.17 70.3291 234.691C69.4001 228.623 68.8059 222.508 68.5492 216.375C68.2366 210.133 68.1163 203.82 67.972 197.506C67.8277 191.192 67.6473 184.902 67.1542 178.733C66.7179 172.702 65.8538 166.71 64.5686 160.802C63.26 155.302 61.465 149.929 59.2049 144.747C57.1771 140.062 54.8761 135.5 52.3139 131.085C49.9929 126.96 47.6237 123.34 45.4951 120.141C43.3665 116.942 41.3581 114.249 39.6864 112.096C36.3432 107.694 34.2506 105.337 34.2506 105.337C34.2506 105.337 36.4033 107.658 39.8428 111.988C41.5625 114.152 43.5949 116.798 45.8559 119.961C48.1168 123.124 50.522 126.708 52.9393 130.785C55.5977 135.151 57.999 139.668 60.1309 144.314C62.5339 149.512 64.4697 154.913 65.9155 160.453C67.3465 166.387 68.3552 172.416 68.9341 178.492C69.5715 184.71 69.8962 191.036 70.1367 197.349C70.3772 203.663 70.6779 209.965 71.1108 216.134C71.5118 222.147 72.2425 228.133 73.2996 234.065C73.6002 235.496 73.7806 236.891 74.1534 238.311L75.1757 242.508C75.9213 245.153 76.6789 247.883 77.4727 250.445C79.024 255.616 80.6235 260.463 82.1869 264.876C85.2897 273.776 88.2 281.064 90.3286 286.139C92.4573 291.214 93.8042 294.136 93.8042 294.136C93.9509 294.4 94.0416 294.692 94.0706 294.993C94.0996 295.294 94.0664 295.597 93.9729 295.884C93.8795 296.172 93.7279 296.437 93.5275 296.663C93.3272 296.889 93.0824 297.072 92.8083 297.2C92.5343 297.327 92.237 297.397 91.9349 297.404C91.6328 297.412 91.3323 297.357 91.0523 297.243C90.7723 297.13 90.5187 296.96 90.3073 296.744C90.0959 296.528 89.9312 296.27 89.8235 295.988V295.988L89.7394 295.928Z" fill="black"/>
<path d="M118.061 249.314C117.953 249.314 119.636 241.918 119.793 241.461C121.645 236.194 128.331 227.114 134.573 227.295C135.61 227.352 136.623 227.627 137.547 228.101C138.471 228.576 139.284 229.24 139.934 230.05C140.584 230.86 141.057 231.798 141.32 232.803C141.584 233.808 141.633 234.856 141.464 235.881C140.899 240.259 136.858 243.903 133.238 245.959C129.005 248.388 118.073 249.314 118.061 249.314Z" fill="black"/>
<path d="M118.758 219.225C118.65 219.225 121.44 212.154 121.669 211.733C124.303 206.814 132.276 198.853 138.433 199.959C139.449 200.173 140.408 200.598 141.248 201.207C142.088 201.816 142.791 202.595 143.31 203.494C143.83 204.392 144.155 205.39 144.263 206.422C144.372 207.454 144.262 208.497 143.941 209.484C142.739 213.729 138.181 216.7 134.32 218.203C129.714 219.959 118.758 219.225 118.758 219.225Z" fill="black"/>
<path d="M126.588 185.78C126.479 185.78 129.269 178.709 129.498 178.288C132.132 173.369 140.105 165.408 146.262 166.514C147.278 166.728 148.237 167.154 149.077 167.763C149.917 168.372 150.62 169.151 151.14 170.049C151.659 170.947 151.984 171.945 152.092 172.977C152.201 174.009 152.091 175.052 151.77 176.039C150.568 180.284 146.01 183.255 142.149 184.758C137.543 186.526 126.6 185.78 126.588 185.78Z" fill="black"/>
<path d="M132.444 153.935C132.336 153.935 135.126 146.864 135.355 146.443C137.988 141.524 145.962 133.563 152.119 134.669C153.134 134.883 154.093 135.308 154.934 135.917C155.774 136.526 156.477 137.305 156.996 138.204C157.516 139.102 157.84 140.1 157.949 141.132C158.058 142.164 157.948 143.207 157.627 144.194C156.424 148.439 151.867 151.409 148.006 152.913C143.412 154.62 132.456 153.935 132.444 153.935Z" fill="black"/>
<path d="M129.955 126.118C129.847 126.118 130.676 118.59 130.785 118.121C131.987 112.673 137.616 102.896 143.845 102.343C144.881 102.281 145.919 102.438 146.89 102.803C147.862 103.168 148.745 103.734 149.484 104.464C150.222 105.193 150.799 106.07 151.176 107.036C151.554 108.003 151.723 109.039 151.674 110.076C151.674 114.489 148.066 118.566 144.663 121.031C140.706 123.93 129.967 126.106 129.955 126.118Z" fill="black"/>
<path d="M115.018 248.497C115.127 248.497 113.924 241.016 113.816 240.547C112.312 235.172 106.239 225.671 99.9856 225.443C98.9465 225.431 97.9166 225.638 96.963 226.051C96.0094 226.464 95.1535 227.073 94.4511 227.839C93.7488 228.605 93.2157 229.511 92.8867 230.496C92.5576 231.482 92.44 232.526 92.5414 233.56C92.818 237.962 96.6063 241.858 100.082 244.155C104.159 246.861 115.018 248.497 115.018 248.497Z" fill="black"/>
<path d="M118.326 215.04C118.446 215.04 116.113 207.824 115.92 207.367C113.611 202.28 106.179 193.814 99.9616 194.523C98.9301 194.665 97.9402 195.024 97.0568 195.575C96.1734 196.126 95.4163 196.857 94.835 197.721C94.2538 198.585 93.8615 199.562 93.6839 200.588C93.5062 201.614 93.5472 202.666 93.8042 203.675C94.7422 207.981 99.0837 211.264 102.872 213.007C107.346 215.064 118.313 215.04 118.326 215.04Z" fill="black"/>
<path d="M125.77 183.507C125.89 183.507 123.557 176.292 123.364 175.835C121.055 170.748 113.623 162.281 107.406 162.991C106.377 163.137 105.392 163.499 104.512 164.052C103.633 164.605 102.88 165.337 102.303 166.201C101.725 167.064 101.336 168.039 101.161 169.063C100.985 170.087 101.027 171.136 101.284 172.143C102.222 176.448 106.564 179.731 110.352 181.475C114.79 183.531 125.77 183.507 125.77 183.507Z" fill="black"/>
<path d="M131.23 154.163C131.35 154.163 129.017 146.948 128.824 146.491C126.515 141.404 119.083 132.937 112.866 133.647C111.837 133.794 110.852 134.155 109.972 134.708C109.093 135.261 108.34 135.993 107.763 136.857C107.185 137.72 106.796 138.696 106.621 139.719C106.445 140.743 106.487 141.792 106.744 142.799C107.682 147.104 112.024 150.387 115.812 152.131C120.262 154.188 131.218 154.163 131.23 154.163Z" fill="black"/>
<path d="M129.738 127.069C129.847 127.069 126.744 120.129 126.503 119.709C123.653 114.898 115.331 107.31 109.234 108.693C108.228 108.95 107.287 109.417 106.473 110.063C105.659 110.709 104.991 111.519 104.511 112.44C104.031 113.361 103.751 114.373 103.688 115.41C103.625 116.447 103.781 117.485 104.147 118.458C105.554 122.643 110.22 125.421 114.177 126.744C118.831 128.295 129.726 127.069 129.738 127.069Z" fill="black"/>
<path d="M123.16 103.088C123.268 103.088 123.701 95.5479 123.677 95.0669C123.365 89.4987 119.468 78.9157 113.431 77.3403C112.419 77.1067 111.37 77.0887 110.351 77.2875C109.332 77.4863 108.366 77.8974 107.516 78.4941C106.667 79.0908 105.952 79.8597 105.419 80.7508C104.886 81.6419 104.547 82.6352 104.423 83.666C103.75 88.0315 106.612 92.6496 109.51 95.6922C112.914 99.1437 123.16 103.076 123.16 103.088Z" fill="black"/>
<path d="M117.075 289.662C117.075 289.662 116.678 286.475 116.197 280.943C115.716 275.411 115.151 267.498 114.91 257.973C114.778 253.163 114.73 248.064 114.826 242.604C114.826 239.862 114.97 237.12 115.067 234.186L115.379 229.88C115.451 228.437 115.716 226.934 115.872 225.443C116.692 219.371 117.844 213.349 119.324 207.403C120.803 201.39 122.487 195.245 124.134 189.148C125.782 183.05 127.405 176.977 128.68 170.916C129.974 165.008 130.846 159.016 131.29 152.985C131.599 147.339 131.406 141.676 130.713 136.064C130.111 131.017 129.216 126.01 128.031 121.067C126.984 116.461 125.734 112.3 124.603 108.632C123.473 104.964 122.318 101.814 121.344 99.2279C119.384 94.0687 118.049 91.1945 118.049 91.1945C118.049 91.1945 119.444 94.0326 121.513 99.1558C122.535 101.717 123.737 104.856 124.988 108.5C126.239 112.144 127.538 116.293 128.692 120.899C129.99 125.847 130.998 130.866 131.711 135.932C132.539 141.6 132.861 147.331 132.673 153.057C132.356 159.172 131.604 165.256 130.424 171.265C129.221 177.41 127.778 183.567 126.251 189.689C124.724 195.81 123.184 201.931 121.849 207.969C120.522 213.85 119.518 219.8 118.843 225.791C118.722 227.246 118.494 228.642 118.458 230.109L118.241 234.426C118.241 237.168 118.145 240.006 118.241 242.688C118.241 248.088 118.422 253.187 118.65 257.889C119.095 267.306 119.853 275.123 120.418 280.583C120.983 286.042 121.464 289.121 121.464 289.121C121.531 289.416 121.536 289.722 121.479 290.019C121.422 290.316 121.305 290.599 121.134 290.848C120.963 291.098 120.742 291.31 120.486 291.47C120.229 291.631 119.942 291.737 119.643 291.782C119.344 291.827 119.039 291.809 118.746 291.731C118.454 291.652 118.181 291.514 117.945 291.325C117.708 291.137 117.513 290.901 117.372 290.634C117.23 290.366 117.146 290.072 117.123 289.771V289.71L117.075 289.662Z" fill="black"/>
<path d="M131.025 369.191H80.1065L65.7833 285.79H145.336L131.025 369.191Z" fill="black"/>
<path d="M220.716 377.068C281.868 377.068 331.441 327.495 331.441 266.344C331.441 205.192 281.868 155.619 220.716 155.619C159.565 155.619 109.991 205.192 109.991 266.344C109.991 327.495 159.565 377.068 220.716 377.068Z" fill="#9D4BFF" stroke="black" stroke-width="0.91" stroke-linecap="round" stroke-linejoin="round"/>
<path d="M191.385 339.138C182.016 335.68 173.431 330.389 166.13 323.576C158.759 316.497 153.049 307.872 149.413 298.321C145.287 287.61 143.246 276.209 143.4 264.732C143.322 254.935 145.051 245.208 148.499 236.038C151.616 227.607 156.287 219.836 162.269 213.128C174.091 200.215 189.353 190.945 206.261 186.406C214.577 184.178 223.148 183.046 231.756 183.038C238.892 183.013 246.005 183.861 252.934 185.564C259.637 187.223 266.05 189.882 271.96 193.453C277.79 196.958 283.013 201.385 287.426 206.561C292.055 212.137 295.585 218.54 297.828 225.431C300.424 233.276 301.704 241.496 301.616 249.759C301.53 265.657 295.836 281.014 285.537 293.126C281.09 298.211 275.801 302.495 269.903 305.789C264.845 308.759 259.111 310.386 253.247 310.516C249.212 310.55 245.278 309.257 242.051 306.836C240.415 305.637 239.084 304.071 238.163 302.265C237.242 300.458 236.757 298.461 236.747 296.433C229.876 306.102 220.592 310.937 208.895 310.937C199.362 310.937 191.745 307.677 186.045 301.159C180.345 294.641 177.506 286.624 177.53 277.107C177.556 269.867 178.817 262.685 181.258 255.869C183.644 248.978 187.062 242.49 191.397 236.627C195.71 230.848 201.214 226.062 207.536 222.592C213.838 219.031 220.957 217.166 228.197 217.181C233.226 217.129 238.188 218.341 242.628 220.704C246.956 222.997 250.465 226.577 252.67 230.951L253.62 227.908C254.045 226.622 254.769 225.455 255.732 224.503C256.695 223.551 257.87 222.84 259.161 222.43C260.452 222.019 261.821 221.92 263.157 222.141C264.494 222.361 265.759 222.895 266.849 223.699C267.547 224.265 268.101 224.989 268.467 225.81C268.832 226.631 268.999 227.527 268.953 228.425C268.951 229.284 268.808 230.137 268.532 230.951L253.752 280.558C252.069 286.235 251.227 290.123 251.227 292.224C251.227 295.8 253.047 297.588 256.687 297.588C261.449 297.588 266.127 295.399 270.721 291.021C275.673 286.084 279.494 280.13 281.918 273.571C284.774 266.397 286.235 258.744 286.223 251.022C286.294 244.215 285.3 237.438 283.276 230.938C281.569 225.333 278.864 220.081 275.291 215.437C271.924 211.201 267.857 207.572 263.265 204.709C258.686 201.822 253.688 199.66 248.449 198.299C243.058 196.918 237.513 196.231 231.949 196.255C224.891 196.264 217.868 197.255 211.083 199.201C204.124 201.183 197.488 204.165 191.385 208.053C185.227 211.942 179.652 216.683 174.824 222.135C169.83 227.904 165.944 234.545 163.364 241.726C160.489 249.496 159.046 257.722 159.106 266.007C158.953 275.844 160.739 285.615 164.362 294.761C167.457 302.692 172.371 309.786 178.709 315.47C184.821 320.794 191.884 324.916 199.526 327.617C207.577 330.463 216.062 331.887 224.601 331.826C233.729 331.845 242.807 330.462 251.515 327.725C252.394 327.428 253.318 327.286 254.245 327.304C255.127 327.269 256.006 327.425 256.822 327.761C257.637 328.098 258.371 328.606 258.972 329.252C260.125 330.451 260.768 332.051 260.764 333.714C260.878 335.051 260.505 336.383 259.714 337.467C258.923 338.55 257.766 339.31 256.458 339.607C245.589 342.934 234.295 344.667 222.929 344.754C212.16 344.817 201.47 342.914 191.385 339.138ZM229.387 291.418C233.923 288.147 237.294 283.512 239.008 278.189L248.629 244.348L248.004 242.977C247.389 241.86 246.646 240.819 245.791 239.874C244.644 238.554 243.398 237.323 242.063 236.194C240.337 234.809 238.378 233.742 236.278 233.043C230.835 231.109 224.859 231.315 219.562 233.62C216.682 234.864 214.034 236.588 211.733 238.719C209.334 240.958 207.2 243.464 205.371 246.188C203.462 249.008 201.849 252.019 200.561 255.171C199.266 258.316 198.264 261.572 197.566 264.9C196.884 268.062 196.534 271.287 196.52 274.521C196.51 276.596 196.635 278.669 196.893 280.727C197.119 282.549 197.522 284.346 198.095 286.09C198.605 287.669 199.329 289.171 200.248 290.552C201.102 291.826 202.167 292.945 203.399 293.859C204.716 294.816 206.195 295.529 207.764 295.964C209.612 296.476 211.523 296.723 213.441 296.698C219.192 296.763 224.802 294.914 229.387 291.442V291.418Z" fill="black"/>
<path d="M371.296 173.177C371.296 173.177 367.688 179.887 367.159 180.837C366.63 181.788 364.754 186.851 365.271 188.053C365.788 189.256 366.401 189.941 367.544 190.134C368.686 190.326 369.624 192.407 371.524 192.779C372.714 193.01 373.921 193.134 375.132 193.152C375.428 193.369 375.769 193.515 376.129 193.579C376.49 193.644 376.861 193.625 377.213 193.525C378.343 193.152 379.293 192.575 380.051 189.364C380.509 187.767 380.636 186.093 380.424 184.445L380.027 177.987L371.296 173.177Z" fill="white" stroke="black" stroke-width="0.91" stroke-linecap="round" stroke-linejoin="round"/>
<path d="M392.137 353.918C392.137 353.918 387.002 362.336 387.002 364.309C387.002 366.281 394.074 370.033 397.104 371.38C400.135 372.727 405.523 373.785 409.9 374.411C414.278 375.036 423.369 376.816 420.724 373.4C418.078 369.985 401.867 360.941 401.193 359.931C400.359 358.932 399.424 358.021 398.403 357.213L392.137 353.918Z" fill="white" stroke="black" stroke-width="0.91" stroke-linecap="round" stroke-linejoin="round"/>
<path d="M400.195 367.087L401.999 369.793C403.942 372.733 406.577 375.153 409.671 376.84C414.482 379.438 421.89 382.408 428.36 380.628C438.967 377.706 412.269 361.603 412.269 361.603C412.269 361.603 402.744 368.181 400.195 367.087Z" fill="white" stroke="black" stroke-width="0.91" stroke-linecap="round" stroke-linejoin="round"/>
<path d="M403.25 368.362C406.172 372.782 410.599 375.991 415.709 377.393C424.428 379.883 426.917 379.257 428.793 376.768" stroke="black" stroke-width="0.68" stroke-linecap="round" stroke-linejoin="round"/>
<path d="M387.676 362.757C387.676 362.757 397.297 369.648 401.987 369.781" stroke="black" stroke-width="0.68" stroke-linecap="round" stroke-linejoin="round"/>
<path d="M366.798 175.582C366.798 175.582 375.337 189.737 377.165 193.02C378.993 196.303 402.023 222.604 411.163 245.334C420.303 268.063 429.082 288.496 428.721 295.074C428.36 301.652 398.355 357.177 398.355 357.177L392.137 353.882C392.137 353.882 401.65 301.58 400.556 296.084C399.461 290.588 365.812 236.098 365.812 236.098C365.812 236.098 350.082 225.13 343.504 212.322" fill="black"/>
<path d="M368.001 210.903C368.001 210.903 363.19 221.149 363.19 222.604C363.19 224.06 389.889 302.711 397.573 320.63C402.437 332.11 406.712 343.83 410.381 355.746C410.381 355.746 413.303 359.354 411.115 363.058C408.926 366.762 400.147 369.276 398.319 365.98C396.491 362.685 378.572 345.536 370.887 328.302C363.202 311.069 352.235 281.845 346.017 270.877C337.806 256.839 330.476 242.303 324.069 227.355C316.024 208.329 307.726 187.728 307.726 187.728C318.586 188.636 329.518 187.411 339.908 184.121C356.744 178.637 363.96 168.138 363.96 168.138C363.96 168.138 368.241 179.082 369.348 181.198" fill="black"/>
<path d="M370.502 241.377L362.084 219.478L371.513 211.396" stroke="white" stroke-width="0.68" stroke-linecap="round" stroke-linejoin="round"/>
<path d="M379.594 218.804L362.084 219.478C362.084 219.478 362.084 212.743 359.053 208.365C356.023 203.988 355.349 203.314 355.013 201.967C354.831 200.739 354.831 199.491 355.013 198.263" stroke="white" stroke-width="0.68" stroke-linecap="round" stroke-linejoin="round"/>
<path d="M401.831 292.236C401.831 292.236 412.943 297.96 420.688 297.287" stroke="white" stroke-width="0.68" stroke-linecap="round" stroke-linejoin="round"/>
<path d="M403.851 295.603C403.851 295.603 411.596 302.001 418.282 303.685" stroke="white" stroke-width="0.68" stroke-linecap="round" stroke-linejoin="round"/>
<path d="M359.39 194.559C359.053 195.57 360.737 200.284 361.795 202.641C362.854 204.998 366.173 206.682 366.173 208.365C366.173 210.049 361.795 213.08 361.795 213.08" stroke="white" stroke-width="0.68" stroke-linecap="round" stroke-linejoin="round"/>
<path d="M330.431 203.314C330.431 203.314 328.411 210.049 325.043 212.743L321.676 215.437" stroke="white" stroke-width="0.68" stroke-linecap="round" stroke-linejoin="round"/>
<path d="M316.95 201.967C316.95 201.967 322.674 220.824 331.092 235.316C339.511 249.808 358.753 281.124 359.378 287.185C360.003 293.246 359.378 299.307 364.092 302.338C368.807 305.368 368.47 306.715 369.143 310.756C369.72 313.655 370.624 316.479 371.837 319.175C371.837 319.175 385.306 342.024 390.021 350.443C393.462 356.322 397.359 361.923 401.674 367.195" stroke="white" stroke-width="0.68" stroke-linecap="round" stroke-linejoin="round"/>
<path d="M307.774 187.729C307.774 187.729 308.543 196.243 311.911 198.937C315.278 201.631 325.38 203.988 339.186 201.342C352.992 198.696 368.145 186.911 369.492 182.822C370.839 178.733 363.972 168.15 363.972 168.15C363.972 168.15 356.011 179.454 333.786 183.159C311.562 186.863 307.774 187.729 307.774 187.729Z" fill="white" stroke="black" stroke-width="0.91" stroke-linecap="round" stroke-linejoin="round"/>
<path d="M396.527 105.193C391.043 101.585 348.242 68.2485 344.225 66.7813C340.208 65.3141 332.199 66.7813 332.199 66.7813C332.199 66.7813 307.365 69.7518 302.158 71.9044C301.677 72.0969 290.492 78.5188 290.131 78.8556C286.103 82.1507 268.484 90.2564 263.746 100.503C258.37 112.096 305.609 181.884 307.81 187.74C310.011 193.597 321.544 195.016 332.151 193.561C342.758 192.106 352.066 189.953 359.751 181.162C361.143 179.411 362.311 177.491 363.226 175.45C364.327 173.168 364.607 170.578 364.02 168.114C361.278 156.689 354.279 123.749 349.661 101.97C357.358 106.937 373.353 117.027 382.673 120.586C395.108 125.397 404.621 122.054 404.621 118.025C404.621 113.996 402.023 108.849 396.527 105.193Z" fill="white"/>
<g style="mix-blend-mode:multiply" opacity="0.5">
<path d="M349.132 93.287C352.423 94.5093 355.875 95.2466 359.378 95.4757C363.768 95.4757 361.206 97.3037 359.378 98.0373C357.55 98.7709 371.08 96.9429 370.719 99.1317C370.358 101.32 360.785 105.722 360.785 105.722C367.206 109.334 374.307 111.574 381.639 112.3C394.446 113.768 386.449 121.44 386.449 121.44C386.449 121.44 365.86 113.876 349.637 101.934L349.132 93.287Z" fill="#9D4BFF"/>
</g>
<g opacity="0.5">
<g style="mix-blend-mode:multiply" opacity="0.5">
<path d="M284.383 118.157C284.383 118.157 281.461 122.968 282.916 123.28C284.371 123.593 299.38 117.424 294.256 122.547C289.133 127.67 282.916 127.67 285.477 129.125C288.039 130.58 294.617 130.592 292.428 132.047C290.24 133.503 294.617 140.093 305.597 153.261C316.577 166.43 321.327 175.57 333.402 181.788C345.476 188.005 353.521 188.005 346.209 189.833C338.898 191.661 331.201 192.779 330.84 196.027C330.84 196.027 331.201 198.588 326.811 200.416C322.422 202.244 319.86 201.883 316.565 200.416C313.27 198.949 312.175 198.949 311.442 197.121C310.708 195.293 307.762 187.692 307.762 187.692L302.518 176.472L300.835 174.067L299.368 172.972L273.764 129.077L284.383 118.157Z" fill="#9D4BFF"/>
</g>
</g>
<path d="M396.527 105.193C391.043 101.585 348.242 68.2485 344.225 66.7813C340.208 65.3141 332.199 66.7813 332.199 66.7813C332.199 66.7813 307.365 69.7518 302.158 71.9044C301.677 72.0969 290.492 78.5188 290.131 78.8556C286.103 82.1507 268.484 90.2564 263.746 100.503C258.37 112.096 305.609 181.884 307.81 187.74C310.011 193.597 321.544 195.016 332.151 193.561C342.758 192.106 352.066 189.953 359.751 181.162C361.143 179.411 362.311 177.491 363.226 175.45C364.327 173.168 364.607 170.578 364.02 168.114C361.278 156.689 354.279 123.749 349.661 101.97C357.358 106.937 373.353 117.027 382.673 120.586C395.108 125.397 404.621 122.054 404.621 118.025C404.621 113.996 402.023 108.849 396.527 105.193Z" stroke="black" stroke-width="0.91" stroke-linecap="round" stroke-linejoin="round"/>
<path d="M269.591 93.0104C269.591 93.0104 265.201 97.8209 263.493 100.046C254.33 111.843 225.166 149.545 224.889 152.588C224.613 155.631 225.96 157.687 233.091 160.429C240.223 163.171 287.919 115.355 287.919 115.355" fill="white"/>
<g opacity="0.5">
<g style="mix-blend-mode:multiply" opacity="0.8">
<path d="M272.309 92.1926L237.192 141.211C237.192 141.211 240.8 145.24 245.238 149.257C249.675 153.273 257.264 155.835 251.455 155.474C245.647 155.113 234.619 150.664 234.619 150.664C234.619 150.664 231.323 153.225 235.352 155.787C239.381 158.349 240.163 156.521 251.816 162.365C263.469 168.21 282.254 171.986 282.254 171.986L280.739 175.065L230.975 162.353C230.975 162.353 223.759 158.745 224.793 152.732C225.827 146.719 242.628 127.477 242.628 127.477L266.68 95.9568C266.68 95.9568 268.929 92.6015 272.309 92.1926Z" fill="#9D4BFF"/>
</g>
</g>
<path d="M269.591 93.0104C269.591 93.0104 265.201 97.8209 263.493 100.046C254.33 111.843 225.166 149.545 224.889 152.588C224.613 155.631 225.96 157.687 233.091 160.429C240.223 163.171 287.919 115.355 287.919 115.355" stroke="black" stroke-width="0.91" stroke-linecap="round" stroke-linejoin="round"/>
<path d="M366.125 90.8216L349.625 101.934C352.03 101.597 363.431 97.5563 363.431 97.5563" stroke="black" stroke-width="0.68" stroke-linecap="round" stroke-linejoin="round"/>
<path d="M365.451 97.2195L369.155 96.5461" stroke="black" stroke-width="0.68" stroke-linecap="round" stroke-linejoin="round"/>
<path d="M243.205 140.947C240.659 140.872 238.127 141.352 235.785 142.354" stroke="black" stroke-width="0.91" stroke-linecap="round" stroke-linejoin="round"/>
<path d="M279.164 124.423C279.164 124.423 288.424 121.585 290.889 119.696" stroke="black" stroke-width="0.68" stroke-linecap="round" stroke-linejoin="round"/>
<path d="M293.162 118.758C293.162 118.758 294.677 117.436 295.243 117.436" stroke="black" stroke-width="0.68" stroke-linecap="round" stroke-linejoin="round"/>
<path d="M349.625 101.946L348.122 86.4802" stroke="black" stroke-width="0.91" stroke-linecap="round" stroke-linejoin="round"/>
<path d="M224.805 152.732C224.805 152.732 222.677 160.874 236.326 164.253C242.808 165.853 285.706 176.28 285.706 176.28C285.706 176.28 289.542 168.054 287.353 168.054C285.165 168.054 245.659 141.716 245.659 141.716" fill="white"/>
<g style="mix-blend-mode:multiply" opacity="0.5">
<path d="M272.309 92.1926L237.192 141.211C237.192 141.211 240.8 145.24 245.238 149.257C249.675 153.273 257.264 155.835 251.455 155.474C245.647 155.113 234.619 150.664 234.619 150.664C234.619 150.664 231.324 153.225 235.352 155.787C239.381 158.349 240.163 156.521 251.816 162.365C263.469 168.21 282.254 171.986 282.254 171.986L280.931 175.137L230.963 162.377C230.963 162.377 221.498 157.904 224.781 152.756C228.509 146.864 242.616 127.501 242.616 127.501L267.174 96.2334C267.474 95.0932 268.138 94.082 269.064 93.3528C269.991 92.6237 271.13 92.2164 272.309 92.1926V92.1926Z" fill="#9D4BFF"/>
</g>
<path d="M224.805 152.732C224.805 152.732 222.677 160.874 236.326 164.253C242.808 165.853 285.706 176.28 285.706 176.28C285.706 176.28 289.542 168.054 287.353 168.054C285.165 168.054 245.659 141.716 245.659 141.716" stroke="black" stroke-width="0.91" stroke-linecap="round" stroke-linejoin="round"/>
<path d="M287.353 168.102C287.353 168.102 301.436 174.68 302.53 176.52C303.625 178.36 306.138 187.861 306.138 190.783C306.138 193.705 305.777 193.705 303.949 193.705C302.122 193.705 297.371 186.754 296.265 185.287C295.158 183.82 292.657 183.82 289.314 181.679C288.384 181.087 287.584 180.311 286.964 179.399C286.343 178.487 285.915 177.458 285.706 176.376L287.353 168.102Z" fill="white" stroke="black" stroke-width="0.91" stroke-linecap="round" stroke-linejoin="round"/>
<path d="M281.34 174.921L283.529 168.126" stroke="black" stroke-width="0.91" stroke-linecap="round" stroke-linejoin="round"/>
<g style="mix-blend-mode:multiply" opacity="0.4">
<path d="M314.268 102.956C314.268 102.956 291.707 90.1241 283.613 91.2786C275.52 92.4331 268.581 93.5877 268.581 93.5877L283.601 83.0768C291.033 86.5884 301.857 94.5257 314.268 102.956Z" fill="#9D4BFF"/>
</g>
<path d="M388.121 116.894C388.121 116.894 384.513 129.329 382.997 136.641C381.482 143.953 371.296 173.177 371.296 173.177L380.075 178.661C380.075 178.661 399.461 138.421 403.117 129.642C406.773 120.863 405.679 114.285 402.023 110.617" fill="white"/>
<path d="M388.121 116.894C388.121 116.894 384.513 129.329 382.997 136.641C381.482 143.953 371.296 173.177 371.296 173.177L380.075 178.661C380.075 178.661 399.461 138.421 403.117 129.642C406.773 120.863 405.679 114.285 402.023 110.617" stroke="black" stroke-width="0.91" stroke-linecap="round" stroke-linejoin="round"/>
<path d="M372.956 169.004C373.617 169.004 381.939 173.61 381.939 173.61Z" fill="black"/>
<path d="M315.266 102.956C313.246 102.619 302.47 95.5479 295.062 89.8234C287.654 84.099 283.613 83.0888 283.613 83.0888L278.562 86.4561C277.799 83.9947 278.041 81.3314 279.236 79.048C281.256 75.3439 288.328 71.6399 295.399 68.946C302.47 66.2521 310.552 63.895 315.603 63.895C320.654 63.895 322.001 65.9154 322.001 68.6093C322.001 71.3031 322.001 79.7215 320.317 86.1194C318.633 92.5173 315.266 102.956 315.266 102.956Z" fill="white"/>
<g opacity="0.5">
<g style="mix-blend-mode:multiply" opacity="0.5">
<path d="M312.091 67.8276C312.091 67.8276 308.976 77.1599 305.874 79.962C303.466 81.9843 300.859 83.7572 298.093 85.2535C298.093 85.2535 296.229 78.7233 291.563 78.7233C286.896 78.7233 279.753 81.7779 279.753 81.7779C279.753 81.7779 279.753 79.2885 285.658 76.1737L291.563 73.059L305.248 67.7675L312.091 67.8276Z" fill="#9D4BFF"/>
</g>
</g>
<path d="M315.266 102.956C313.246 102.619 302.47 95.5479 295.062 89.8234C287.654 84.099 283.613 83.0888 283.613 83.0888L278.562 86.4561C277.799 83.9947 278.041 81.3314 279.236 79.048C281.256 75.3439 288.328 71.6399 295.399 68.946C302.47 66.2521 310.552 63.895 315.603 63.895C320.654 63.895 322.001 65.9154 322.001 68.6093C322.001 71.3031 322.001 79.7215 320.317 86.1194C318.633 92.5173 315.266 102.956 315.266 102.956Z" stroke="black" stroke-width="0.91" stroke-linecap="round" stroke-linejoin="round"/>
<path d="M285.333 60.203C289.301 64.5468 292.091 69.8336 293.439 75.5604C295.579 85.0731 309.337 96.2093 312.681 96.2093C316.024 96.2093 315.747 79.9019 314.653 75.1515C313.558 70.4012 309.073 57.6414 309.073 57.6414C309.073 57.6414 291.551 49.2231 285.333 60.203Z" fill="white"/>
<g opacity="0.5">
<g style="mix-blend-mode:multiply" opacity="0.5">
<path d="M312.091 67.8276C312.091 67.8276 308.976 77.1599 305.874 79.962C303.466 81.9843 300.859 83.7572 298.093 85.2535C298.093 85.2535 296.229 78.7233 291.563 78.7233C286.896 78.7233 279.753 81.7779 279.753 81.7779C279.753 81.7779 279.753 79.2885 285.658 76.1737L291.563 73.059L305.248 67.7675L312.091 67.8276Z" fill="#9D4BFF"/>
</g>
</g>
<path d="M285.333 60.203C289.301 64.5468 292.091 69.8336 293.439 75.5604C295.579 85.0731 309.337 96.2093 312.681 96.2093C316.024 96.2093 315.747 79.9019 314.653 75.1515C313.558 70.4012 309.073 57.6414 309.073 57.6414C309.073 57.6414 291.551 49.2231 285.333 60.203Z" stroke="black" stroke-width="0.91" stroke-linecap="round" stroke-linejoin="round"/>
<path d="M273.74 42.5726C276.321 49.5887 279.513 56.3653 283.277 62.8247C288.833 71.9646 299.56 77.1238 305.513 74.7426C311.466 72.3614 315.519 64.6887 313.931 52.7708C313.582 50.1491 311.297 49.0788 310.564 46.7577C307.942 38.3394 305.26 30.2338 304.322 27.131C303.12 23.1624 293.595 19.1817 283.673 21.9718C273.752 24.7619 272.152 33.0359 273.74 42.5726Z" fill="white"/>
<g style="mix-blend-mode:multiply" opacity="0.5">
<path d="M306.667 35.2848C306.667 35.2848 303.06 37.9786 294.954 36.4152C286.848 34.8518 281.268 35.2126 281.581 37.3533C281.894 39.4939 282.519 42.3321 282.519 42.3321C282.519 42.3321 272.79 33.9138 281.605 31.6649C287.955 30.0293 291.623 32.5308 293.186 32.8675C294.75 33.2042 306.667 35.2848 306.667 35.2848Z" fill="#9D4BFF"/>
</g>
<path d="M273.74 42.5726C276.321 49.5887 279.513 56.3653 283.277 62.8247C288.833 71.9646 299.56 77.1238 305.513 74.7426C311.466 72.3614 315.519 64.6887 313.931 52.7708C313.582 50.1491 311.297 49.0788 310.564 46.7577C307.942 38.3394 305.26 30.2338 304.322 27.131C303.12 23.1624 293.595 19.1817 283.673 21.9718C273.752 24.7619 272.152 33.0359 273.74 42.5726Z" stroke="black" stroke-width="0.91" stroke-linecap="round" stroke-linejoin="round"/>
<path d="M280.883 55.6691C280.883 55.6691 274.533 52.8911 274.137 55.6691C273.74 58.4472 276.542 60.4796 279.296 61.6822C279.981 62.0568 280.762 62.2191 281.539 62.1485C282.316 62.0778 283.055 61.7773 283.661 61.2854" fill="white"/>
<path d="M280.883 55.6691C280.883 55.6691 274.533 52.8911 274.137 55.6691C273.74 58.4472 276.542 60.4796 279.296 61.6822C279.981 62.0568 280.762 62.2191 281.539 62.1485C282.316 62.0778 283.055 61.7773 283.661 61.2854" stroke="black" stroke-width="0.91" stroke-linecap="round" stroke-linejoin="round"/>
<path d="M306.848 39.975C306.848 39.975 299.776 38.2913 302.807 47.7198C303.408 49.5839 307.521 51.7606 307.521 51.7606C307.521 51.7606 307.185 54.7912 305.501 55.128" fill="white"/>
<path d="M306.848 39.975C306.848 39.975 299.776 38.2913 302.807 47.7198C303.408 49.5839 307.521 51.7606 307.521 51.7606C307.521 51.7606 307.185 54.7912 305.501 55.128" stroke="black" stroke-width="0.91" stroke-linecap="round" stroke-linejoin="round"/>
<path d="M301.857 61.8626C301.857 61.8626 296.806 62.8728 294.786 60.5157Z" fill="white"/>
<path d="M301.857 61.8626C301.857 61.8626 296.806 62.8728 294.786 60.5157" stroke="black" stroke-width="0.91" stroke-linecap="round" stroke-linejoin="round"/>
<path d="M294.389 46.0361C294.389 46.0361 290.685 44.6892 288.664 46.3729C287.583 47.1256 286.746 48.1794 286.259 49.4035" fill="white"/>
<path d="M294.389 46.0361C294.389 46.0361 290.685 44.6892 288.664 46.3729C287.583 47.1256 286.746 48.1794 286.259 49.4035" stroke="black" stroke-width="0.91" stroke-linecap="round" stroke-linejoin="round"/>
<path d="M294.065 54.2692C294.664 54.0129 294.763 52.9044 294.287 51.7932C293.811 50.6819 292.941 49.9888 292.342 50.245C291.744 50.5012 291.645 51.6098 292.12 52.721C292.596 53.8322 293.467 54.5254 294.065 54.2692Z" fill="black"/>
<path d="M306.174 48.3785C306.772 48.1223 306.871 47.0138 306.395 45.9025C305.92 44.7913 305.049 44.0982 304.45 44.3544C303.852 44.6106 303.753 45.7191 304.229 46.8304C304.704 47.9416 305.575 48.6347 306.174 48.3785Z" fill="black"/>
<path d="M279.115 57.2806C279.115 57.2806 283.144 54.3583 282.411 51.7967C281.677 49.2351 280.222 49.2351 281.677 47.7679C283.132 46.3007 284.239 45.5792 283.866 43.3784C283.493 41.1776 277.648 37.5216 279.476 35.3329C281.304 33.1441 280.571 30.5224 295.567 34.2385C310.564 37.9546 320.077 32.0497 315.687 26.5538C311.297 21.0578 307.641 20.3362 307.641 20.3362C307.641 20.3362 316.06 16.7284 309.109 13.0243C302.158 9.32026 286.427 9.41647 277.648 16.3195C268.869 23.2225 270.697 29.1274 270.697 29.1274C270.697 29.1274 265.887 29.861 265.574 37.1729C265.261 44.4848 279.115 57.2806 279.115 57.2806Z" fill="black"/>
<path d="M279.007 32.2782C279.007 32.2782 280.21 28.5501 286.451 28.5501C292.693 28.5501 298.249 33.8296 306.667 31.9655C315.086 30.1015 310.395 25.1467 310.395 25.1467" stroke="white" stroke-width="0.68" stroke-linecap="round" stroke-linejoin="round"/>
<path d="M276.229 31.3522C276.229 31.3522 276.831 23.6555 283.661 21.9237C290.492 20.1919 299.488 23.6074 301.977 22.6693" stroke="white" stroke-width="0.68" stroke-linecap="round" stroke-linejoin="round"/>
<path d="M272.814 31.6649C272.814 31.6649 269.086 31.6649 268.785 36.6317C268.624 37.9584 268.795 39.3043 269.282 40.5489C269.769 41.7935 270.557 42.8979 271.575 43.7632" stroke="white" stroke-width="0.68" stroke-linecap="round" stroke-linejoin="round"/>
<path d="M276.229 34.7676C275.693 34.9573 275.205 35.2602 274.797 35.6557C274.388 36.0512 274.07 36.53 273.864 37.0595C273.657 37.589 273.567 38.1568 273.6 38.7242C273.632 39.2917 273.787 39.8454 274.052 40.3478" stroke="white" stroke-width="0.68" stroke-linecap="round" stroke-linejoin="round"/>
<path d="M273.439 44.6892L274.99 46.8659" stroke="white" stroke-width="0.68" stroke-linecap="round" stroke-linejoin="round"/>
</g>
<defs>
<clipPath id="clip0">
<rect width="500" height="381.999" fill="white"/>
</clipPath>
</defs>
</svg>
